<svg xmlns="http://www.w3.org/2000/svg" width="1200" height="420" viewBox="0 0 1200 420" role="img" aria-label="WiFi Repeater banner">
<defs>
<linearGradient id="bg" x1="0" y1="0" x2="1" y2="1"><stop offset="0%" stop-color="#04060d"/><stop offset="48%" stop-color="#002b3d"/><stop offset="100%" stop-color="#04060d"/></linearGradient>
<radialGradient id="glow1" cx="0.5" cy="0.5" r="0.5"><stop offset="0%" stop-color="#00e5a0" stop-opacity="0.62"/><stop offset="100%" stop-color="#00e5a0" stop-opacity="0"/></radialGradient>
<radialGradient id="glow2" cx="0.5" cy="0.5" r="0.5"><stop offset="0%" stop-color="#002b3d" stop-opacity="0.5"/><stop offset="100%" stop-color="#002b3d" stop-opacity="0"/></radialGradient>
<linearGradient id="gTitle" x1="0" y1="0" x2="1" y2="0.35"><stop offset="0%" stop-color="#ffffff"/><stop offset="52%" stop-color="#a7f3e0"/><stop offset="100%" stop-color="#ffffff"/></linearGradient>
<linearGradient id="gAcc" x1="0" y1="0" x2="1" y2="1"><stop offset="0%" stop-color="#a7f3e0"/><stop offset="100%" stop-color="#00e5a0"/></linearGradient>
<linearGradient id="gBar" x1="0" y1="0" x2="1" y2="0"><stop offset="0%" stop-color="#00e5a0"/><stop offset="55%" stop-color="#a7f3e0"/><stop offset="100%" stop-color="#a7f3e0" stop-opacity="0"/></linearGradient>
<pattern id="grid" width="34" height="34" patternUnits="userSpaceOnUse"><path d="M34 0H0V34" fill="none" stroke="#ffffff" stroke-opacity="0.05" stroke-width="1"/><circle cx="0" cy="0" r="1.1" fill="#ffffff" fill-opacity="0.10"/></pattern>
</defs>
<rect width="1200" height="420" fill="url(#bg)"/>
<rect width="1200" height="420" fill="url(#grid)"/>
<ellipse cx="960" cy="70" rx="330" ry="230" fill="url(#glow1)"/>
<ellipse cx="140" cy="400" rx="300" ry="220" fill="url(#glow2)"/>
<path d="M0 420 L520 0 L760 0 L0 420 Z" fill="#ffffff" fill-opacity="0.018"/>
<g stroke="#a7f3e0" stroke-opacity="0.8" stroke-width="2.4" fill="none"><path d="M30 66 V26 H70"/><path d="M1170 66 V26 H1130"/><path d="M30 354 V394 H70"/><path d="M1170 354 V394 H1130"/></g>
<line x1="70" y1="34" x2="70" y2="45" stroke="#a7f3e0" stroke-opacity="0.55" stroke-width="1.6"/><line x1="105.333" y1="34" x2="105.333" y2="40" stroke="#a7f3e0" stroke-opacity="0.28" stroke-width="1.2"/><line x1="140.667" y1="34" x2="140.667" y2="40" stroke="#a7f3e0" stroke-opacity="0.28" stroke-width="1.2"/><line x1="176" y1="34" x2="176" y2="40" stroke="#a7f3e0" stroke-opacity="0.28" stroke-width="1.2"/><line x1="211.333" y1="34" x2="211.333" y2="40" stroke="#a7f3e0" stroke-opacity="0.28" stroke-width="1.2"/><line x1="246.667" y1="34" x2="246.667" y2="45" stroke="#a7f3e0" stroke-opacity="0.55" stroke-width="1.6"/><line x1="282" y1="34" x2="282" y2="40" stroke="#a7f3e0" stroke-opacity="0.28" stroke-width="1.2"/><line x1="317.333" y1="34" x2="317.333" y2="40" stroke="#a7f3e0" stroke-opacity="0.28" stroke-width="1.2"/><line x1="352.667" y1="34" x2="352.667" y2="40" stroke="#a7f3e0" stroke-opacity="0.28" stroke-width="1.2"/><line x1="388" y1="34" x2="388" y2="40" stroke="#a7f3e0" stroke-opacity="0.28" stroke-width="1.2"/><line x1="423.333" y1="34" x2="423.333" y2="45" stroke="#a7f3e0" stroke-opacity="0.55" stroke-width="1.6"/><line x1="458.667" y1="34" x2="458.667" y2="40" stroke="#a7f3e0" stroke-opacity="0.28" stroke-width="1.2"/><line x1="494" y1="34" x2="494" y2="40" stroke="#a7f3e0" stroke-opacity="0.28" stroke-width="1.2"/><line x1="529.333" y1="34" x2="529.333" y2="40" stroke="#a7f3e0" stroke-opacity="0.28" stroke-width="1.2"/><line x1="564.667" y1="34" x2="564.667" y2="40" stroke="#a7f3e0" stroke-opacity="0.28" stroke-width="1.2"/><line x1="600" y1="34" x2="600" y2="45" stroke="#a7f3e0" stroke-opacity="0.55" stroke-width="1.6"/><line x1="635.333" y1="34" x2="635.333" y2="40" stroke="#a7f3e0" stroke-opacity="0.28" stroke-width="1.2"/><line x1="670.667" y1="34" x2="670.667" y2="40" stroke="#a7f3e0" stroke-opacity="0.28" stroke-width="1.2"/><line x1="706" y1="34" x2="706" y2="40" stroke="#a7f3e0" stroke-opacity="0.28" stroke-width="1.2"/><line x1="741.333" y1="34" x2="741.333" y2="40" stroke="#a7f3e0" stroke-opacity="0.28" stroke-width="1.2"/><line x1="776.667" y1="34" x2="776.667" y2="45" stroke="#a7f3e0" stroke-opacity="0.55" stroke-width="1.6"/><line x1="812" y1="34" x2="812" y2="40" stroke="#a7f3e0" stroke-opacity="0.28" stroke-width="1.2"/><line x1="847.333" y1="34" x2="847.333" y2="40" stroke="#a7f3e0" stroke-opacity="0.28" stroke-width="1.2"/><line x1="882.667" y1="34" x2="882.667" y2="40" stroke="#a7f3e0" stroke-opacity="0.28" stroke-width="1.2"/><line x1="918" y1="34" x2="918" y2="40" stroke="#a7f3e0" stroke-opacity="0.28" stroke-width="1.2"/><line x1="953.333" y1="34" x2="953.333" y2="45" stroke="#a7f3e0" stroke-opacity="0.55" stroke-width="1.6"/><line x1="988.667" y1="34" x2="988.667" y2="40" stroke="#a7f3e0" stroke-opacity="0.28" stroke-width="1.2"/><line x1="1024" y1="34" x2="1024" y2="40" stroke="#a7f3e0" stroke-opacity="0.28" stroke-width="1.2"/><line x1="1059.33" y1="34" x2="1059.33" y2="40" stroke="#a7f3e0" stroke-opacity="0.28" stroke-width="1.2"/><line x1="1094.67" y1="34" x2="1094.67" y2="40" stroke="#a7f3e0" stroke-opacity="0.28" stroke-width="1.2"/><line x1="1130" y1="34" x2="1130" y2="45" stroke="#a7f3e0" stroke-opacity="0.55" stroke-width="1.6"/>
<g transform="translate(50,352) rotate(-90)"><text x="0" y="0" font-family="Segoe UI, Roboto, Helvetica, Arial, sans-serif" font-size="12" font-weight="800" fill="#a7f3e0" fill-opacity="0.75" text-anchor="start" letter-spacing="4.2">ESP32 · WIFI NAPT</text></g>
<circle cx="986" cy="54" r="5" fill="#a7f3e0"><animate attributeName="opacity" values="1;0.15;1" dur="2.2s" repeatCount="indefinite"/></circle>
<text x="1002" y="58" font-family="Segoe UI, Roboto, Helvetica, Arial, sans-serif" font-size="11" font-weight="800" fill="#ffffff" fill-opacity="0.6" text-anchor="start" letter-spacing="2.2">READY  //  v1.0</text>
<rect x="664" y="72" width="478" height="288" rx="18" fill="#ffffff" fill-opacity="0.035" stroke="#a7f3e0" stroke-opacity="0.3" stroke-width="1.4"/>
<text x="686" y="100" font-family="Segoe UI, Roboto, Helvetica, Arial, sans-serif" font-size="11" font-weight="800" fill="#a7f3e0" fill-opacity="0.95" text-anchor="start" letter-spacing="3">// WHAT IT DOES</text>
<line x1="686" y1="108" x2="1122" y2="108" stroke="#a7f3e0" stroke-opacity="0.28" stroke-width="1"/>
<line x1="675" y1="118" x2="675" y2="344" stroke="#a7f3e0" stroke-opacity="0.55" stroke-width="2"><animate attributeName="x1" values="675;1131;675" dur="7s" repeatCount="indefinite"/><animate attributeName="x2" values="675;1131;675" dur="7s" repeatCount="indefinite"/></line>
<rect x="694" y="192" width="86" height="60" rx="10" fill="#ffffff" fill-opacity="0.08" stroke="#a7f3e0" stroke-opacity="0.4" stroke-width="1"/><path d="M712 192 l-10 -26 M762 192 l10 -26" stroke="#a7f3e0" stroke-width="3" stroke-linecap="round"/><circle cx="702" cy="164" r="4" fill="#a7f3e0"/><circle cx="772" cy="164" r="4" fill="#a7f3e0"/><rect x="706" y="208" width="30" height="6" rx="3" fill="#ffffff" fill-opacity="0.8"/><rect x="706" y="220" width="44" height="6" rx="3" fill="#ffffff" fill-opacity="0.5"/><rect x="706" y="232" width="44" height="6" rx="3" fill="#ffffff" fill-opacity="0.5"/><text x="737" y="272" font-family="Segoe UI, Roboto, Helvetica, Arial, sans-serif" font-size="11" font-weight="800" fill="#a7f3e0" fill-opacity="1" text-anchor="middle" letter-spacing="1.6">ROUTER</text><rect x="862" y="178" width="92" height="92" rx="16" fill="#ffffff" fill-opacity="0.09" stroke="#a7f3e0" stroke-opacity="0.55" stroke-width="1.6"/><text x="908" y="214" font-family="Segoe UI, Roboto, Helvetica, Arial, sans-serif" font-size="17" font-weight="800" fill="#ffffff" fill-opacity="1" text-anchor="middle" letter-spacing="0.6">ESP32</text><text x="908" y="236" font-family="Segoe UI, Roboto, Helvetica, Arial, sans-serif" font-size="13" font-weight="800" fill="#a7f3e0" fill-opacity="1" text-anchor="middle" letter-spacing="2.4">NAPT</text><rect x="878" y="246" width="60" height="5" rx="2.5" fill="#a7f3e0" fill-opacity="0.6"/><text x="908" y="292" font-family="Segoe UI, Roboto, Helvetica, Arial, sans-serif" font-size="11" font-weight="800" fill="#a7f3e0" fill-opacity="1" text-anchor="middle" letter-spacing="1.6">REPEATER</text><rect x="1054" y="176" width="56" height="100" rx="10" fill="#ffffff" fill-opacity="0.08" stroke="#a7f3e0" stroke-opacity="0.45" stroke-width="1"/><rect x="1064" y="196" width="36" height="44" rx="4" fill="#ffffff" fill-opacity="0.22"/><circle cx="1082" cy="264" r="5" fill="#a7f3e0"/><text x="1082" y="292" font-family="Segoe UI, Roboto, Helvetica, Arial, sans-serif" font-size="11" font-weight="800" fill="#a7f3e0" fill-opacity="1" text-anchor="middle" letter-spacing="1.6">CLIENTS</text><line x1="784" y1="222" x2="856" y2="222" stroke="#a7f3e0" stroke-width="3" stroke-dasharray="8 7"/><line x1="960" y1="222" x2="1048" y2="222" stroke="#a7f3e0" stroke-width="3" stroke-dasharray="8 7"/><text x="820" y="212" font-family="Segoe UI, Roboto, Helvetica, Arial, sans-serif" font-size="11" font-weight="800" fill="#ffffff" fill-opacity="0.8" text-anchor="middle" letter-spacing="1.4">STA</text><text x="1004" y="212" font-family="Segoe UI, Roboto, Helvetica, Arial, sans-serif" font-size="11" font-weight="800" fill="#ffffff" fill-opacity="0.8" text-anchor="middle" letter-spacing="1.4">AP</text><text x="908" y="336" font-family="Segoe UI, Roboto, Helvetica, Arial, sans-serif" font-size="15" font-weight="600" fill="#e7ecff" fill-opacity="0.88" text-anchor="middle" letter-spacing="0">same channel, both directions, NAT bridged</text>
<g opacity="1"><rect x="74" y="66" width="237" height="38" rx="19" fill="#ffffff" fill-opacity="0.12" stroke="#a7f3e0" stroke-opacity="0.85"/><text x="192.5" y="89.86" font-family="Segoe UI, Roboto, Helvetica, Arial, sans-serif" font-size="13.5" font-weight="700" fill="#a7f3e0" fill-opacity="1" text-anchor="middle" letter-spacing="2.6">ESP32 · WIFI NAPT</text></g>
<text x="72" y="188" font-family="Segoe UI, Roboto, Helvetica, Arial, sans-serif" font-size="58" font-weight="800" fill="url(#gTitle)" fill-opacity="1" text-anchor="start" letter-spacing="0.5">WiFi Repeater</text>
<text x="74" y="230" font-family="Segoe UI, Roboto, Helvetica, Arial, sans-serif" font-size="20" font-weight="500" fill="#e7ecff" fill-opacity="0.92" text-anchor="start" letter-spacing="0.2">NAT range extender · softAP + STA · web &amp; serial config</text>
<rect x="74" y="252" width="330" height="4" rx="2" fill="url(#gBar)"/>
<rect x="74" y="252" width="46" height="4" rx="2" fill="#ffffff" fill-opacity="0.85"><animate attributeName="x" values="74;358;74" dur="4.5s" repeatCount="indefinite"/><animate attributeName="opacity" values="0.9;0.3;0.9" dur="4.5s" repeatCount="indefinite"/></rect>
<g opacity="1"><rect x="74" y="284" width="75" height="36" rx="18" fill="#ffffff" fill-opacity="0.1" stroke="#a7f3e0" stroke-opacity="0.85"/><text x="111.5" y="306.68" font-family="Segoe UI, Roboto, Helvetica, Arial, sans-serif" font-size="13" font-weight="700" fill="#ffffff" fill-opacity="1" text-anchor="middle" letter-spacing="1.1">ESP32</text></g>
<g opacity="1"><rect x="159" y="284" width="67" height="36" rx="18" fill="#ffffff" fill-opacity="0.1" stroke="#a7f3e0" stroke-opacity="0.85"/><text x="192.5" y="306.68" font-family="Segoe UI, Roboto, Helvetica, Arial, sans-serif" font-size="13" font-weight="700" fill="#ffffff" fill-opacity="1" text-anchor="middle" letter-spacing="1.1">NAPT</text></g>
<g opacity="1"><rect x="236" y="284" width="141" height="36" rx="18" fill="#ffffff" fill-opacity="0.1" stroke="#a7f3e0" stroke-opacity="0.85"/><text x="306.5" y="306.68" font-family="Segoe UI, Roboto, Helvetica, Arial, sans-serif" font-size="13" font-weight="700" fill="#ffffff" fill-opacity="1" text-anchor="middle" letter-spacing="1.1">Range-Extender</text></g>
<g opacity="1"><rect x="387" y="284" width="119" height="36" rx="18" fill="#ffffff" fill-opacity="0.1" stroke="#a7f3e0" stroke-opacity="0.85"/><text x="446.5" y="306.68" font-family="Segoe UI, Roboto, Helvetica, Arial, sans-serif" font-size="13" font-weight="700" fill="#ffffff" fill-opacity="1" text-anchor="middle" letter-spacing="1.1">Preferences</text></g>
<g opacity="1"><rect x="516" y="284" width="67" height="36" rx="18" fill="#ffffff" fill-opacity="0.1" stroke="#a7f3e0" stroke-opacity="0.85"/><text x="549.5" y="306.68" font-family="Segoe UI, Roboto, Helvetica, Arial, sans-serif" font-size="13" font-weight="700" fill="#ffffff" fill-opacity="1" text-anchor="middle" letter-spacing="1.1">lwIP</text></g>
<line x1="74" y1="344" x2="620" y2="344" stroke="#ffffff" stroke-opacity="0.14"/>
<text x="74" y="366" font-family="Segoe UI, Roboto, Helvetica, Arial, sans-serif" font-size="11" font-weight="800" fill="#a7f3e0" fill-opacity="0.8" text-anchor="start" letter-spacing="2">BOARD  ESP32</text>
<text x="300" y="366" font-family="Segoe UI, Roboto, Helvetica, Arial, sans-serif" font-size="11" font-weight="800" fill="#a7f3e0" fill-opacity="0.8" text-anchor="start" letter-spacing="2">SERIAL  115200</text>
<text x="500" y="366" font-family="Segoe UI, Roboto, Helvetica, Arial, sans-serif" font-size="11" font-weight="800" fill="#a7f3e0" fill-opacity="0.8" text-anchor="start" letter-spacing="2">FIRMWARE  PREBUILT</text>
</svg>